<?xml version="1.0" standalone="no"?>
<!DOCTYPE svg PUBLIC "-//W3C//DTD SVG 20010904//EN"
 "http://www.w3.org/TR/2001/REC-SVG-20010904/DTD/svg10.dtd">
<svg version="1.0" xmlns="http://www.w3.org/2000/svg"
 width="1024.000000pt" height="1024.000000pt" viewBox="0 0 1024.000000 1024.000000"
 preserveAspectRatio="xMidYMid meet">

<g transform="translate(0.000000,1024.000000) scale(0.100000,-0.100000)"
fill="#000000" stroke="none">
<path d="M939 6217 c-75 -26 -164 -89 -202 -145 -14 -20 -39 -64 -54 -97 l-28
-60 -3 -487 c-2 -312 1 -509 7 -545 25 -133 115 -250 239 -309 45 -22 76 -29
144 -32 l87 -4 3 -144 c3 -143 3 -143 32 -173 23 -24 38 -31 69 -31 39 0 47 7
208 167 92 92 176 170 186 174 10 4 154 7 321 8 167 1 323 6 348 11 101 23
205 97 263 188 60 95 61 107 61 648 0 467 -1 495 -20 558 -27 87 -98 179 -176
228 -109 68 -106 68 -799 68 -617 -1 -620 -1 -686 -23z m1351 -188 c55 -25 95
-62 123 -114 22 -39 22 -51 25 -502 2 -307 -1 -476 -8 -502 -16 -61 -68 -122
-129 -153 l-55 -28 -600 0 c-372 0 -615 4 -637 10 -56 16 -100 50 -134 104
l-30 49 0 496 c0 550 -3 521 67 591 72 72 44 70 723 70 592 0 611 -1 655 -21z"/>
<path d="M1068 5847 c-14 -12 -31 -32 -37 -44 -7 -15 -11 -148 -11 -408 0
-427 1 -438 62 -475 32 -19 49 -20 553 -20 504 0 521 1 553 20 60 37 62 49 62
471 0 332 -2 385 -16 415 -31 66 -17 64 -606 64 l-533 0 -27 -23z m434 -249
c27 -21 30 -53 9 -79 -10 -13 -53 -51 -95 -84 -41 -33 -75 -63 -76 -66 0 -3
38 -36 85 -75 49 -39 88 -79 92 -93 11 -42 -26 -79 -68 -68 -24 7 -246 194
-261 221 -13 24 1 43 75 103 40 32 86 70 102 84 82 73 104 82 137 57z m389
-59 c125 -107 169 -151 169 -171 0 -18 -239 -230 -266 -236 -8 -2 -26 4 -40
13 -20 13 -24 23 -22 48 2 26 18 44 88 101 47 38 85 72 85 76 0 4 -39 40 -87
80 -93 77 -106 103 -71 142 28 32 57 21 144 -53z"/>
<path d="M4554 5803 c-12 -2 -34 -18 -50 -34 -58 -60 -28 -160 51 -175 65 -12
135 43 135 106 0 37 -30 81 -65 96 -19 8 -38 13 -42 13 -4 -1 -18 -4 -29 -6z"/>
<path d="M3130 5275 l0 -515 90 0 90 0 0 174 0 173 143 5 c177 6 236 25 313
102 64 65 89 130 89 236 0 130 -52 228 -151 286 -78 46 -131 54 -361 54 l-213
0 0 -515z m460 319 c55 -32 81 -87 77 -161 -3 -67 -20 -99 -71 -137 -24 -18
-45 -21 -157 -25 l-129 -3 0 177 0 177 123 -3 c101 -3 128 -8 157 -25z"/>
<path d="M7242 5773 c-9 -18 -129 -319 -290 -733 -44 -113 -88 -222 -96 -243
l-17 -38 102 3 102 3 47 125 46 125 205 3 206 2 48 -130 49 -130 98 0 c54 0
98 2 98 4 0 7 -83 222 -238 616 l-160 405 -95 3 c-84 2 -97 0 -105 -15z m245
-585 c5 -17 -7 -18 -147 -18 -141 0 -152 1 -145 18 7 16 130 341 141 372 4 11
127 -292 151 -372z"/>
<path d="M4246 5505 c-42 -15 -92 -58 -102 -87 -11 -37 -21 -16 -16 37 l4 55
-91 0 -91 0 0 -375 0 -375 89 0 90 0 3 223 c3 198 5 226 23 262 29 58 90 87
173 83 l62 -4 0 82 c0 45 3 89 6 98 5 14 -3 16 -52 16 -33 -1 -76 -7 -98 -15z"/>
<path d="M5110 5507 c-19 -6 -54 -30 -77 -54 l-43 -42 0 49 0 50 -90 0 -90 0
0 -375 0 -375 89 0 89 0 4 243 c3 212 6 247 22 280 26 52 83 81 148 75 56 -6
83 -26 109 -83 16 -35 19 -69 19 -277 l0 -238 90 0 90 0 0 243 c0 265 4 288
62 330 40 30 115 33 156 7 64 -40 72 -75 72 -342 l0 -238 91 0 91 0 -4 273 -3
272 -33 68 c-50 101 -127 147 -246 147 -75 0 -148 -31 -193 -83 l-31 -35 -49
47 c-28 27 -65 51 -89 59 -50 15 -136 14 -184 -1z"/>
<path d="M6305 5506 c-110 -35 -176 -94 -228 -205 -29 -60 -32 -75 -32 -166 0
-115 12 -164 58 -231 71 -107 182 -159 332 -158 118 0 193 32 265 111 28 30
50 60 50 67 0 12 -117 56 -146 56 -6 0 -21 -12 -35 -26 -33 -36 -79 -54 -137
-54 -111 0 -173 47 -206 158 l-7 22 280 0 281 0 0 58 c0 175 -101 322 -253
367 -61 18 -167 19 -222 1z m192 -155 c41 -19 84 -70 98 -118 l6 -23 -186 0
-187 0 7 28 c26 104 157 160 262 113z"/>
<path d="M8214 5504 c-23 -8 -60 -31 -83 -50 l-41 -36 0 46 0 46 -90 0 -90 0
0 -525 0 -526 88 3 87 3 5 188 5 189 23 -25 c42 -45 117 -70 209 -70 73 0 90
4 147 32 79 39 146 110 178 189 18 47 22 76 23 167 0 98 -3 116 -26 165 -36
77 -109 153 -176 186 -69 34 -193 43 -259 18z m164 -163 c80 -41 117 -107 117
-211 0 -92 -26 -147 -86 -187 -47 -31 -123 -41 -185 -24 -79 21 -144 121 -144
222 0 77 61 177 124 205 46 20 130 17 174 -5z"/>
<path d="M9099 5506 c-40 -14 -88 -46 -110 -72 -13 -16 -15 -13 -19 27 l-5 44
-87 3 -88 3 0 -525 0 -525 88 4 87 5 0 183 0 184 35 -28 c19 -15 52 -35 73
-44 43 -18 175 -22 225 -6 95 29 186 114 224 210 33 82 32 241 -1 326 -33 83
-124 174 -204 203 -66 25 -161 28 -218 8z m149 -165 c122 -63 157 -229 76
-354 -65 -99 -244 -102 -316 -6 -85 113 -52 299 62 357 55 28 127 29 178 3z"/>
<path d="M4490 5135 l0 -375 90 0 90 0 0 375 0 375 -90 0 -90 0 0 -375z"/>
</g>
</svg>
